<svg xmlns="http://www.w3.org/2000/svg" version="1.1" xmlns:xlink="http://www.w3.org/1999/xlink" xmlns:svgjs="http://svgjs.dev/svgjs" width="2000" height="1524" viewBox="0 0 2000 1524"><g transform="matrix(1,0,0,1,-0.7301727300356333,0.6181434204744392)"><svg viewBox="0 0 324 247" data-background-color="#ffffff" preserveAspectRatio="xMidYMid meet" height="1524" width="2000" xmlns="http://www.w3.org/2000/svg" xmlns:xlink="http://www.w3.org/1999/xlink"><g id="tight-bounds" transform="matrix(1,0,0,1,0.11828798226576964,-0.09997365579206985)"><svg viewBox="0 0 323.76325390157285 247.2" height="247.2" width="323.76325390157285"><g><svg viewBox="0 0 323.76325390157285 247.2" height="247.2" width="323.76325390157285"><g><svg viewBox="0 0 323.76325390157285 247.2" height="247.2" width="323.76325390157285"><g><svg viewBox="0 0 323.76325390157285 247.2" height="247.2" width="323.76325390157285" id="textblock"><g><svg viewBox="0 0 323.76325390157285 247.2" height="247.2" width="323.76325390157285"><path d="M323.005 53.02C321.483 27.36 317.145 20.227 317.145 20.227 303.827-6.202 287.206-0.506 272.274 3.292 245.912 3.446 219.656 9.091 193.354 12.119 138.149 12.581 82.471 4.986 27.539 23.717 22.379 29.464-5.353 24.846 0.918 56.304 2.562 69.39 8.559 83.913 8.376 95.922 9.198 98.026 10.339 93.202 10.827 96.23 12.531 104.39 15.317 100.541 17.6 105.365 14.419 118.246 16.702 128.971 18.878 140.21 15.043 143.135 10.126 141.749 7.919 151.449 7.691 158.479 6.458 157.145 5.104 156.837 4.114 156.632 2.12 157.402 2.455 159.608 3.597 167.152-1.304 171.514 1.77 178.904-0.346 186.91 3.231 193.838 2.744 202.511 2.683 204.255 3.018 205.744 3.551 206.154 5.91 208.361 2.47 212.672 2.836 217.342 27.037 249.262 53.293 227.195 78.087 241.872 84.526 231.608 79.685 245.516 82.258 243.36 84.267 240.846 85.728 251.263 87.996 245.362 88.346 243.668 87.813 239.665 89.061 240.435 89.716 240.846 90.294 240.743 90.386 238.382 90.523 234.841 89.32 237.048 89.001 235.201 92.456 225.861 91.603 248.081 94.845 247.158 94.693 244.438 93.749 240.538 95.683 241.051 97.6 237.151 97.661 233.918 99.366 242.693 99.427 244.592 99.731 245.926 100.218 246.85 105.546 237.305 110.842 250.237 116.428 245.926 119.853 241.205 123.141 248.492 126.611 246.696 127.829 245.259 129.062 242.693 130.234 247.004 144.587 247.928 159.884 244.079 173.491 247.158 209.854 241.41 248.713 249.518 287.054 241.923 296.095 238.998 305.486 234.841 314.299 231.506 314.299 231.506 321.438 222.371 321.438 181.316S322.96 145.393 323.188 112.703C323.416 80.013 324.482 78.679 322.96 53.02Z" opacity="1" fill="#ee3e38" data-fill-palette-color="tertiary"></path><g transform="matrix(1,0,0,1,55.76832000000002,26.230666666666668)"><svg width="212.22661390157282" viewBox="0.75 -32.599998474121094 35.79999923706055 32.849998474121094" height="194.73866666666666" data-palette-color="#ffffff"><path d="M0.75 0.25L1.15-4Q3.15-4.4 3.78-5.2 4.4-6 4.4-8.1L4.4-8.1 4.4-25.4Q4.4-26.95 4.05-27.45 3.7-27.95 2.65-27.95L2.65-27.95 1.35-27.9 0.9-28.6 1.3-32.35 7.75-32.35Q9.7-32.35 17.7-32.6L17.7-32.6 17.35-28.1Q15.75-27.8 15.28-27.33 14.8-26.85 14.7-25.5L14.7-25.5 14.4-19.45 18.65-19.3Q21.15-19.3 22.85-19.45L22.85-19.45 22.85-25.4Q22.85-26.9 22.5-27.43 22.15-27.95 21.1-27.95L21.1-27.95 19.75-27.9 19.3-28.6 19.7-32.35 27.75-32.35Q27.35-32.35 35.15-32.55L35.15-32.55 36.55-32.6 36.2-28.2Q34.4-27.9 33.83-27.4 33.25-26.9 33.2-25.5L33.2-25.5Q33-22.7 32.85-17.95 32.7-13.2 32.7-8.6L32.7-8.6Q32.7-6.2 33.1-5.33 33.5-4.45 34.65-4.45L34.65-4.45Q35.15-4.45 36.05-4.6L36.05-4.6 36.45-4.05 36 0.1Q31.7 0 27.45 0L27.45 0 19.15 0.05 19.55-4.3Q21.35-4.35 22.1-5.2 22.85-6.05 22.85-8.1L22.85-8.1 22.85-13.2 19.9-13.25Q18.5-13.25 14.25-12.8L14.25-12.8 14.25-7.8Q14.25-5.7 14.58-5.03 14.9-4.35 15.85-4.35L15.85-4.35Q16.7-4.35 17.2-4.5L17.2-4.5 17.6-4 17.15 0.2Q11.85 0 9.05 0L9.05 0Q6.6 0 0.75 0.25L0.75 0.25Z" opacity="1" transform="matrix(1,0,0,1,0,0)" fill="#ffffff" class="undefined-text-0" data-fill-palette-color="quaternary" id="text-0"></path></svg></g></svg></g></svg></g></svg></g><g></g></svg></g><defs></defs></svg><rect width="323.76325390157285" height="247.2" fill="none" stroke="none" visibility="hidden"></rect></g></svg></g></svg>